<svg width="174" height="40" viewBox="0 0 174 40" fill="none" xmlns="http://www.w3.org/2000/svg">
<g id="EMBLT_Logo_Primary 1" clip-path="url(#clip0_158_1945)">
<g id="Layer_1-2">
<path id="Vector" d="M29.2184 27.9548L26.4926 25.9736L29.2116 24.0026C29.8484 23.5377 29.8484 22.5842 29.2116 22.1226L26.4926 20.1448L29.2116 18.1738C29.8484 17.7088 29.8518 16.7553 29.2116 16.2937L15.5223 6.33752C15.1146 6.04439 14.562 6.04439 14.1577 6.33752L0.478461 16.2903C-0.158331 16.7553 -0.158331 17.7054 0.478461 18.1704L3.19409 20.1515L0.478461 22.1293C-0.158331 22.5943 -0.158331 23.5444 0.48183 24.0094L3.19073 25.9804L0.475092 27.9581C-0.161701 28.4231 -0.161701 29.3732 0.475092 29.8382L14.1577 39.7843C14.5654 40.0841 15.1179 40.0841 15.5223 39.7843L29.2116 29.8449C29.8518 29.38 29.8518 28.4298 29.215 27.9649L29.2184 27.9548ZM26.6543 23.0626L24.5654 24.5754L23.6018 25.2796L22.6415 25.9736L15.9737 30.8254V27.793L20.556 24.4575L21.5196 23.7634L22.4832 23.0626L24.5688 21.5464L26.6543 23.0626ZM13.7096 36.6542L3.029 28.8914L5.10784 27.3753L13.7096 33.6219V36.6542ZM13.7096 30.8288L7.03843 25.977L6.07482 25.2762L5.11121 24.5754L3.03237 23.0626L5.12132 21.5464L7.20016 23.0626L8.16377 23.7567L9.12401 24.4575L13.713 27.793V30.8254L13.7096 30.8288ZM14.8383 25.8187L11.0411 23.066L10.0876 22.3618L9.12401 21.661L7.03843 20.1482L6.07482 19.4474L5.11458 18.7432L3.02563 17.227L14.8349 8.64547L26.6476 17.2371L24.562 18.7499L23.595 19.4507L22.6348 20.1515L20.5492 21.6677L19.589 22.3618L18.6254 23.066L14.8282 25.8187H14.8383ZM15.9737 36.6542V33.6219L24.5654 27.3786L26.6543 28.8948L15.9737 36.6542Z" fill="#213447"/>
<path id="Vector_2" d="M52.8909 21.5363C52.7965 19.1272 50.62 17.1023 47.7831 17.1023C45.465 17.1023 43.0526 19.0767 42.7224 21.5363H52.8942H52.8909ZM52.0384 29.4372C52.5573 29.198 52.9852 28.7634 53.3626 28.7634C53.5984 28.7634 53.8343 28.8611 54.0735 29.198L55.8255 32.0417C55.967 32.2843 56.0614 32.4763 56.0614 32.6684C56.0614 33.1502 55.684 33.4871 55.3033 33.824C53.3154 35.3671 50.903 36.3308 48.2076 36.3308C41.6308 36.3308 36.1422 30.8388 36.1422 23.9958C36.1422 17.1529 41.5364 11.6138 47.9212 11.6138C54.306 11.6138 59.087 16.5767 59.087 22.601C59.087 25.1043 58.8039 26.1657 57.4326 26.1657H42.719C43.0021 28.9588 45.748 30.5996 48.0661 30.5996C49.4374 30.6468 50.8087 30.165 52.0418 29.444" fill="#FF5C5C"/>
<path id="Vector_3" d="M65.8154 12.0923C66.9037 12.0923 67.281 14.0667 67.4731 15.1752C68.7972 13.5849 70.9266 11.9002 73.9556 11.9002C77.1732 11.9002 79.68 13.5849 80.9097 15.6098C82.4225 13.3928 85.2628 11.7554 88.0998 11.7554C94.4879 11.7554 97.0418 16.1893 97.2305 21.7756V34.5923C97.2305 35.4616 96.6173 35.748 95.812 35.748H92.217C91.2231 35.748 90.7042 35.5054 90.7042 34.6395V22.4023C90.7042 19.9932 89.7103 18.066 87.4394 18.066C85.1685 18.066 82.7561 19.9461 82.7561 22.3551V34.5923C82.7561 35.5087 82.1901 35.748 81.3376 35.748H77.4596C76.5128 35.748 76.1355 35.5054 76.1355 34.6395V22.1597C76.1355 19.5586 74.7642 18.066 72.4933 18.066C70.3639 18.066 67.9987 19.8955 67.9987 22.2574V34.7372C67.9987 35.4616 67.527 35.748 66.8161 35.748H62.746C61.8464 35.748 61.4219 35.4582 61.4219 34.6866V13.5815C61.4219 12.7156 62.1328 12.0889 62.6988 12.0889H65.8221L65.8154 12.0923Z" fill="#FF5C5C"/>
<path id="Vector_4" d="M111.624 30.4515C114.747 30.4515 117.254 27.6078 117.254 24.0903C117.254 20.5728 114.842 17.6819 111.766 17.6819C108.689 17.6819 105.947 20.5728 105.947 24.0903V24.1375C105.947 27.6078 108.548 30.4515 111.624 30.4515ZM100.128 1.20283C100.128 0.481806 100.553 0 101.216 0H105.381C106.233 0 106.563 0.481806 106.563 1.20283V14.6934C107.887 12.9582 109.781 11.8026 112.571 11.8026C119.006 11.8026 123.595 17.2473 123.595 24.0398C123.595 30.8322 118.817 36.2298 112.571 36.2298C109.589 36.2298 107.652 35.219 106.088 32.9043C105.947 33.5782 105.852 34.1071 105.711 34.6867C105.381 35.8423 104.104 35.748 103.063 35.748H101.263C100.505 35.7008 100.128 35.2662 100.128 34.5418V1.20283Z" fill="#FF5C5C"/>
<path id="Vector_5" d="M137.776 30.3067C141.135 30.3067 143.784 27.5136 143.784 24.0432C143.784 20.5729 141.135 17.7326 137.776 17.7326C134.417 17.7326 131.816 20.6234 131.816 24.0432C131.816 27.463 134.417 30.3067 137.776 30.3067ZM137.776 11.6106C144.542 11.6106 150.03 17.153 150.03 23.9927C150.03 30.8323 144.542 36.2804 137.776 36.2804C131.011 36.2804 125.522 30.8357 125.522 23.9927C125.522 17.1497 130.964 11.6106 137.776 11.6106Z" fill="#FF5C5C"/>
<path id="Vector_6" d="M152.028 1.06132C152.028 0.387466 152.406 0 153.022 0H157.423C158.039 0 158.464 0.434636 158.464 1.06132V34.6934C158.464 35.3201 158.086 35.7547 157.423 35.7547H153.022C152.362 35.7547 152.028 35.3706 152.028 34.6934V1.06132Z" fill="#FF5C5C"/>
<path id="Vector_7" d="M163.336 5.58963C163.336 4.81806 163.807 4.28909 164.801 4.19138L168.302 3.6624C168.396 3.61523 168.538 3.61523 168.632 3.61523C169.532 3.61523 169.768 4.24192 169.768 5.06065V12.0957H172.604C173.363 12.0957 173.881 12.5775 173.881 13.4939V16.1422C173.881 17.153 173.359 17.6348 172.604 17.6348H169.768V34.3531C169.768 35.2695 169.437 35.7514 168.491 35.7514H164.518C163.571 35.7514 163.336 35.2695 163.336 34.3531V17.6348H162.059C161.112 17.6348 160.687 17.153 160.687 16.1422V13.4939C160.687 12.5775 161.112 12.0957 162.059 12.0957H163.336V5.58963Z" fill="#FF5C5C"/>
</g>
</g>
<defs>
<clipPath id="clip0_158_1945">
<rect width="173.885" height="40" fill="white"/>
</clipPath>
</defs>
</svg>
