<?xml version="1.0" encoding="UTF-8"?><svg id="Layer_2" xmlns="http://www.w3.org/2000/svg" viewBox="0 0 88.13 100.55"><defs><style>.cls-1{fill:#ff5c5c;}.cls-2{fill:#213447;}</style></defs><g id="Layer_1-2"><path class="cls-2" d="m86.72,64.8l-8.09-5.88,8.07-5.85c1.89-1.38,1.89-4.21,0-5.57l-8.07-5.87,8.07-5.85c1.89-1.38,1.91-4.21,0-5.58L46.08.66c-1.21-.88-2.85-.88-4.05,0L1.42,30.17c-1.89,1.38-1.89,4.2,0,5.58l8.05,5.88-8.05,5.87c-1.89,1.38-1.89,4.19.01,5.57l8.04,5.85-8.05,5.87c-1.89,1.38-1.89,4.19,0,5.57l40.61,29.52c1.2.89,2.84.89,4.05,0l40.62-29.5c1.91-1.38,1.91-4.2.02-5.58Zm-7.61-14.52l-6.2,4.49-2.86,2.09-2.85,2.06-19.79,14.41v-9.01l13.61-9.9,2.86-2.06,2.86-2.08,6.19-4.5,6.18,4.5Zm-38.42,40.34l-31.69-23.04,6.17-4.5,25.52,18.54v9Zm0-17.29l-19.8-14.41-2.86-2.07-2.86-2.08-6.17-4.49,6.2-4.5,6.17,4.5,2.86,2.07,2.84,2.07,13.62,9.9v9.01Zm3.36-14.87l-11.27-8.18-2.83-2.09-2.86-2.07-6.19-4.49-2.86-2.08-2.84-2.09-6.2-4.5L44.05,7.49l35.06,25.5-6.18,4.49-2.88,2.07-2.85,2.08-6.18,4.5-2.85,2.06-2.86,2.09-11.26,8.18Zm3.36,32.16v-9l25.5-18.53,6.2,4.5-31.7,23.03Z"/><polygon class="cls-1" points="79.1 50.28 72.9 54.77 70.04 56.86 67.19 58.92 47.4 73.33 47.4 64.32 61.01 54.42 63.87 52.36 66.73 50.28 72.92 45.78 79.1 50.28"/><polygon class="cls-1" points="40.68 64.32 40.68 73.33 20.88 58.92 18.02 56.85 15.16 54.77 8.99 50.28 15.19 45.78 21.36 50.28 24.22 52.35 27.06 54.42 40.68 64.32"/></g></svg>