<svg id="Capa_1" enable-background="new 0 0 510.003 510.003" height="512" viewBox="0 0 510.003 510.003" width="512" xmlns="http://www.w3.org/2000/svg"><path d="m444.421 346.821s-17.02 110.88-189.42 110.88-189.42-110.88-189.42-110.88l189.42-45.49z" fill="#007a9f"/><path d="m444.421 346.821s-17.02 110.88-189.42 110.88v-156.37z" fill="#00607f"/><path d="m502.201 238.001-57.78 64.92h-378.84l-57.78-64.92c-11.48-12.89-10.16-31.08 3.1-42.63 50.37-43.88 172.2-143.07 244.1-143.07s193.73 99.19 244.1 143.07c13.26 11.55 14.58 29.74 3.1 42.63z" fill="#007a9f"/><path d="m502.201 238.001-57.78 64.92h-189.42v-250.62c71.9 0 193.73 99.19 244.1 143.07 13.26 11.55 14.58 29.74 3.1 42.63z" fill="#00607f"/><path d="m300.642 158.851v32.95c0 27.37-20.87 36.17-41.26 46.15-1.38.68-2.88 1.01-4.38 1.01s-3-.33-4.38-1c-19.97-9.74-41.26-18.53-41.26-46.16v-32.95c0-5.53 4.48-10 10-10h71.28c5.519 0 10 4.47 10 10z" fill="#ffe470"/><path d="m444.421 302.931v43.89s-114.16-17.94-189.42-17.94-189.42 17.94-189.42 17.94v-43.89s95.62-17.94 189.42-17.94 189.42 17.94 189.42 17.94z" fill="#ffe470"/><g fill="#ffb64c"><path d="m259.381 237.951c-1.38.68-2.88 1.01-4.38 1.01v-90.11h35.64c5.52 0 10 4.47 10 10v32.95c.001 27.37-20.87 36.17-41.26 46.15z"/><path d="m444.421 302.931v43.89s-114.16-17.94-189.42-17.94v-43.89c93.8 0 189.42 17.94 189.42 17.94z"/></g></svg>